PathFileType	4	(x/y/z)	S01_M20_T10.trc
DataRate	CameraRate	NumFrames	NumMarkers	Units	OrigDataRate	OrigDataStartFrame	OrigNumFrames
240	240	11	51	mm	240	262	419
Frame#	Time	Sternum			R.Acromium			L.Acromium			Top.Head			R.ASIS			L.ASIS			R.PSIS			L.PSIS			R.Great.Tro			L.Great.Tro			R.Iliac.Crest			L.Iliac.Crest			V.Sacral			R.Thigh.Upper.Post			R.Thigh.Lower.Ant			R.Thigh.Lower.Post			R.Thigh.Upper.Ant			R.Knee.Lat			R.Knee.Med			R.Shank.Upper.Post			R.Shank.Lower.Ant			R.Shank.Lower.Post			R.Shank.Upper.Ant			R.Ankle.Lat			R.Ankle.Med			R.Heel.Upper			R.Heel.Med			R.Heel.Lat			R.Toe.Lat			R.Toe.Med			R.Toe.Tip			L.Thigh.Upper.Post			L.Thigh.Lower.Ant			L.Thigh.Lower.Post			L.Thigh.Upper.Ant			L.Knee.Lat			L.Knee.Med			L.Shank.Upper.Post			L.Shank.Lower.Ant			L.Shank.Lower.Post			L.Shank.Upper.Ant			L.Ankle.Lat			L.Ankle.Med			L.Heel.Upper			L.Heel.Med			L.Heel.Lat			L.Toe.Lat			L.Toe.Med			L.Toe.Tip			Cervical.Spine			Back			
		X1	Y1	Z1	X2	Y2	Z2	X3	Y3	Z3	X4	Y4	Z4	X5	Y5	Z5	X6	Y6	Z6	X7	Y7	Z7	X8	Y8	Z8	X9	Y9	Z9	X10	Y10	Z10	X11	Y11	Z11	X12	Y12	Z12	X13	Y13	Z13	X14	Y14	Z14	X15	Y15	Z15	X16	Y16	Z16	X17	Y17	Z17	X18	Y18	Z18	X19	Y19	Z19	X20	Y20	Z20	X21	Y21	Z21	X22	Y22	Z22	X23	Y23	Z23	X24	Y24	Z24	X25	Y25	Z25	X26	Y26	Z26	X27	Y27	Z27	X28	Y28	Z28	X29	Y29	Z29	X30	Y30	Z30	X31	Y31	Z31	X32	Y32	Z32	X33	Y33	Z33	X34	Y34	Z34	X35	Y35	Z35	X36	Y36	Z36	X37	Y37	Z37	X38	Y38	Z38	X39	Y39	Z39	X40	Y40	Z40	X41	Y41	Z41	X42	Y42	Z42	X43	Y43	Z43	X44	Y44	Z44	X45	Y45	Z45	X46	Y46	Z46	X47	Y47	Z47	X48	Y48	Z48	X49	Y49	Z49	X50	Y50	Z50	X51	Y51	Z51	

262	1.0875	241.85	1230.5	254.91	144.12	1483.4	429.54	111.68	1498.4	103.35	164.37	1808.1	252.01	176.03	973.55	424.17	198.46	982.59	157.77	-51.741	1030.2	307.12	-44.809	1024	203.76	80.614	928.01	494.88	108.15	938.56	67.368	93.586	1078.2	480.46	94.42	1062.8	71.791	-62.131	990.54	252.71	-18.196	643.03	469.15	30.619	554.37	451.07	-38.209	557.35	453.8	54.893	641.02	467.67	-47.419	488.77	451.04	-22.86	483.31	307.4	-193.31	402.83	463.63	-199.52	298.9	427.82	-241.79	352.51	452.47	-153.09	353.68	445.16	-374.5	188.62	416.03	-337.95	179.98	325.21	-442.75	209.26	354.3	-445.59	181.51	320.21	-455.63	175.27	384.12	-323.31	46.731	440.7	-287.27	50.112	317.67	-224.5	40.886	372.02	191.12	662.41	97.784	296.73	633.06	102.71	235.95	585.56	119.79	242.11	708.34	79.6	321.12	532.68	114.38	327.64	544.48	254.97	311.57	388.3	91.782	391.37	316.45	121.45	331.9	313.04	95.543	372.59	390.86	114.54	370.05	102.49	126.45	390.81	117.16	225.95	302.58	66.742	173.48	316.47	44.376	208.29	315.11	41.054	145.42	521.92	57.942	114.39	546.02	74.203	234.74	607.14	93.83	182.86	40.585	1550.9	277.87	-56.669	1243.3	295.16
263	1.0917	248.17	1231.1	254.04	150.37	1484.3	428.31	118.08	1498.8	102.14	170.44	1808.6	250.26	182.4	973.91	423.23	204.71	983.54	156.92	-45.346	1030.6	306.96	-38.659	1024.6	203.59	87.365	927.92	494.12	114.14	939.48	66.811	100.65	1078.9	479.63	100.6	1063.7	71.396	-55.858	991.07	252.52	-9.8178	642.28	469	39.686	553.93	451.46	-29.155	556.4	453.94	63.292	640.82	467.68	-37.851	487.9	451.49	-12.871	481.98	307.9	-184.58	403.89	464.02	-192.3	300.05	428.39	-233.77	354.33	452.97	-145.08	354.12	445.69	-368.72	192.49	416.6	-332.35	183.08	325.91	-436.04	215.29	354.95	-439.72	187.81	320.66	-450.01	181.58	384.56	-321.93	48.667	440.69	-285.76	51.613	317.86	-223.7	40.367	372.21	197.43	663.1	97.237	302.95	633.58	102.27	242.13	586.15	119.33	248.43	708.91	79.102	327.22	533.12	114.15	334.03	545.25	254.61	316.46	388.89	91.455	395.39	316.17	121.35	335.94	313.41	95.274	377.42	390.79	114.42	371.29	102.47	126.36	392.21	116.94	225.84	303.35	67.424	173.32	316.83	44.895	208.17	315.58	41.505	145.34	522.76	56.039	114.38	546.97	71.901	234.76	608.42	90.68	182.95	46.764	1551.5	276.52	-50.343	1243.9	294.36
264	1.0958	254.44	1231.8	253.17	156.59	1485.2	427.09	124.44	1499.3	100.97	176.5	1809.2	248.53	188.75	974.33	422.26	210.92	984.55	156.04	-39.002	1030.9	306.83	-32.559	1025.3	203.45	94.11	927.88	493.36	120.07	940.43	66.253	107.67	1079.7	478.79	106.66	1064.6	71.023	-49.635	991.64	252.37	-1.3137	641.53	468.87	48.915	553.51	451.85	-19.937	555.44	454.08	71.814	640.64	467.69	-28.071	487.03	451.94	-2.7032	480.68	308.39	-175.59	404.94	464.42	-184.83	301.22	428.94	-225.48	356.17	453.47	-136.83	354.57	446.22	-362.64	196.44	417.14	-326.51	186.24	326.57	-428.99	221.4	355.59	-433.52	194.22	321.12	-444.04	188.05	385	-320.37	50.815	440.68	-284.06	53.263	318.06	-222.79	39.844	372.44	203.59	663.76	96.719	309.03	634.04	101.84	248.14	586.7	118.91	254.65	709.43	78.614	333.13	533.49	113.92	340.22	545.94	254.29	321.18	389.44	91.157	399.26	315.88	121.27	339.84	313.76	95.031	382.08	390.68	114.32	372.44	102.46	126.3	393.51	116.73	225.76	304.08	68.061	173.18	317.18	45.379	208.07	316.03	41.937	145.26	523.53	54.293	114.39	547.84	69.729	234.81	609.59	87.713	183.08	52.909	1552.1	275.19	-44.052	1244.6	293.57
265	1.1	260.66	1232.5	252.32	162.77	1486.2	425.88	130.76	1499.8	99.821	182.54	1809.8	246.81	195.06	974.81	421.27	217.08	985.61	155.14	-32.712	1031.3	306.73	-26.507	1025.9	203.34	100.84	927.89	492.59	125.95	941.38	65.693	114.63	1080.5	477.93	112.61	1065.5	70.66	-43.46	992.23	252.25	7.3102	640.77	468.76	58.297	553.12	452.24	-10.566	554.47	454.23	80.45	640.49	467.7	-18.092	486.17	452.39	7.6286	479.42	308.87	-166.36	406	464.84	-177.11	302.42	429.47	-216.94	358.02	453.96	-128.33	355.04	446.73	-356.27	200.48	417.64	-320.42	189.47	327.2	-421.59	227.6	356.2	-426.98	200.73	321.57	-437.71	194.64	385.44	-318.61	53.183	440.65	-282.14	55.058	318.28	-221.78	39.326	372.71	209.61	664.39	96.23	314.96	634.43	101.44	253.97	587.23	118.51	260.76	709.92	78.142	338.85	533.78	113.72	346.19	546.52	254.02	325.73	389.94	90.896	402.98	315.57	121.21	343.58	314.07	94.821	386.58	390.55	114.24	373.51	102.46	126.27	394.73	116.54	225.72	304.77	68.651	173.06	317.51	45.826	207.98	316.45	42.349	145.19	524.25	52.705	114.41	548.62	67.682	234.88	610.65	84.926	183.24	59.02	1552.8	273.9	-37.798	1245.3	292.81
266	1.1042	266.82	1233.2	251.48	168.92	1487.2	424.69	137.04	1500.4	98.709	188.57	1810.4	245.11	201.34	975.35	420.26	223.2	986.72	154.22	-26.478	1031.8	306.62	-20.496	1026.6	203.22	107.54	927.96	491.81	131.81	942.33	65.13	121.51	1081.4	477.06	118.47	1066.4	70.296	-37.332	992.85	252.13	16.048	640.02	468.67	67.821	552.77	452.63	-1.0494	553.5	454.39	89.194	640.37	467.72	-7.9252	485.33	452.83	18.11	478.2	309.33	-156.88	407.06	465.27	-169.14	303.66	429.97	-208.14	359.88	454.45	-119.6	355.52	447.22	-349.6	204.6	418.09	-314.07	192.75	327.78	-413.84	233.85	356.76	-420.09	207.3	322	-431.01	201.34	385.85	-316.63	55.773	440.62	-279.98	56.99	318.51	-220.64	38.824	373.02	215.49	665	95.767	320.75	634.77	101.07	259.64	587.72	118.14	266.76	710.38	77.695	344.36	534.01	113.54	351.91	546.99	253.79	330.11	390.39	90.676	406.54	315.24	121.17	347.17	314.35	94.648	390.9	390.39	114.18	374.51	102.49	126.27	395.85	116.34	225.7	305.41	69.196	172.95	317.82	46.234	207.9	316.86	42.741	145.14	524.9	51.271	114.45	549.33	65.755	234.99	611.6	82.316	183.45	65.092	1553.5	272.63	-31.585	1246.1	292.06
267	1.1083	272.94	1234	250.66	175.01	1488.3	423.52	143.29	1501	97.628	194.59	1811.1	243.43	207.58	975.94	419.26	229.27	987.87	153.3	-20.304	1032.3	306.51	-14.525	1027.3	203.1	114.21	928.08	491.03	137.65	943.29	64.563	128.3	1082.3	476.17	124.24	1067.4	69.92	-31.248	993.49	252.02	24.892	639.27	468.59	77.477	552.45	453	8.6014	552.55	454.55	98.039	640.29	467.74	2.4151	484.51	453.26	28.725	477.04	309.77	-147.18	408.11	465.7	-160.93	304.92	430.42	-199.11	361.74	454.93	-110.64	356.03	447.68	-342.63	208.78	418.5	-307.46	196.08	328.3	-405.76	240.12	357.27	-412.86	213.91	322.4	-423.96	208.11	386.24	-314.39	58.585	440.59	-277.57	59.05	318.76	-219.36	38.353	373.36	221.24	665.61	95.324	326.4	635.05	100.74	265.14	588.19	117.8	272.68	710.8	77.278	349.69	534.18	113.4	357.36	547.37	253.62	334.33	390.8	90.501	409.95	314.89	121.17	350.61	314.59	94.518	395.06	390.19	114.15	375.43	102.52	126.31	396.89	116.15	225.73	306.01	69.695	172.88	318.11	46.603	207.84	317.24	43.112	145.09	525.51	49.988	114.52	549.96	63.944	235.13	612.46	79.881	183.69	71.127	1554.3	271.39	-25.416	1246.9	291.33
268	1.1125	279	1234.8	249.87	181.06	1489.4	422.37	149.49	1501.7	96.578	200.6	1811.8	241.77	213.77	976.59	418.26	235.3	989.04	152.37	-14.192	1032.8	306.38	-8.5875	1028	202.97	120.84	928.26	490.25	143.49	944.26	63.993	134.99	1083.3	475.28	129.92	1068.3	69.519	-25.207	994.15	251.88	33.836	638.55	468.52	87.252	552.19	453.37	18.376	551.62	454.71	106.98	640.25	467.77	12.914	483.73	453.69	39.458	475.96	310.19	-137.27	409.17	466.14	-152.5	306.23	430.83	-189.86	363.61	455.39	-101.47	356.56	448.12	-335.38	213.01	418.84	-300.6	199.44	328.76	-397.35	246.4	357.71	-405.28	220.53	322.74	-416.55	214.95	386.58	-311.89	61.615	440.55	-274.88	61.228	319.03	-217.89	37.927	373.74	226.87	666.2	94.895	331.92	635.29	100.46	270.49	588.65	117.49	278.5	711.2	76.898	354.84	534.29	113.3	362.55	547.65	253.51	338.38	391.16	90.375	413.21	314.53	121.2	353.91	314.81	94.431	399.04	389.97	114.16	376.28	102.58	126.37	397.84	115.96	225.79	306.56	70.149	172.82	318.39	46.933	207.8	317.6	43.463	145.06	526.07	48.851	114.61	550.53	62.247	235.3	613.23	77.618	183.96	77.122	1555.1	270.17	-19.295	1247.7	290.6
269	1.1167	285.02	1235.6	249.1	187.05	1490.5	421.24	155.64	1502.4	95.559	206.59	1812.5	240.14	219.91	977.3	417.27	241.29	990.23	151.46	-8.1423	1033.3	306.22	-2.6819	1028.7	202.8	127.41	928.49	489.48	149.33	945.22	63.42	141.54	1084.2	474.38	135.54	1069.2	69.085	-19.209	994.83	251.72	42.872	637.86	468.47	97.136	551.97	453.73	28.263	550.73	454.88	116	640.26	467.79	23.554	483.01	454.1	50.292	474.96	310.59	-127.17	410.24	466.57	-143.84	307.56	431.19	-180.39	365.48	455.82	-92.107	357.12	448.52	-327.83	217.28	419.12	-293.47	202.82	329.16	-388.61	252.65	358.06	-397.37	227.13	323.03	-408.8	221.8	386.86	-309.09	64.855	440.52	-271.89	63.511	319.32	-216.23	37.562	374.16	232.39	666.8	94.475	337.32	635.5	100.23	275.69	589.09	117.2	284.23	711.59	76.56	359.82	534.37	113.24	367.48	547.84	253.45	342.25	391.48	90.298	416.32	314.16	121.28	357.06	314.99	94.39	402.86	389.73	114.2	377.06	102.64	126.47	398.71	115.78	225.89	307.06	70.561	172.79	318.65	47.226	207.77	317.93	43.793	145.04	526.58	47.853	114.71	551.04	60.663	235.5	613.92	75.523	184.27	83.078	1555.9	268.98	-13.224	1248.6	289.88
270	1.1208	290.99	1236.5	248.37	192.98	1491.6	420.14	161.75	1503.1	94.57	212.56	1813.3	238.53	225.99	978.06	416.31	247.25	991.43	150.56	-2.1564	1033.8	306.02	3.1951	1029.4	202.59	133.91	928.8	488.72	155.17	946.19	62.848	147.96	1085.2	473.49	141.1	1070.1	68.61	-13.251	995.52	251.51	51.992	637.22	468.43	107.12	551.82	454.07	38.25	549.89	455.05	125.1	640.33	467.82	34.32	482.34	454.49	61.21	474.06	310.95	-116.89	411.31	466.99	-134.97	308.93	431.5	-170.72	367.35	456.21	-82.553	357.72	448.88	-320.01	221.59	419.34	-286.09	206.21	329.49	-379.57	258.85	358.31	-389.13	233.68	323.25	-400.7	228.64	387.07	-305.96	68.293	440.48	-268.59	65.887	319.63	-214.33	37.278	374.63	237.81	667.4	94.06	342.6	635.68	100.06	280.75	589.53	116.93	289.87	711.98	76.269	364.64	534.41	113.22	372.15	547.97	253.46	345.97	391.76	90.27	419.29	313.78	121.39	360.06	315.16	94.393	406.52	389.47	114.27	377.77	102.72	126.6	399.49	115.59	226.03	307.52	70.932	172.77	318.89	47.484	207.76	318.24	44.103	145.03	527.04	46.987	114.84	551.5	59.189	235.73	614.53	73.593	184.61	88.994	1556.8	267.81	-7.2044	1249.5	289.16
271	1.125	296.91	1237.4	247.67	198.85	1492.8	419.07	167.81	1503.9	93.611	218.52	1814.1	236.96	232.01	978.88	415.39	253.17	992.64	149.7	3.7661	1034.4	305.77	9.0464	1030.2	202.34	140.34	929.16	487.97	161.03	947.16	62.278	154.22	1086.3	472.61	146.61	1070.9	68.088	-7.3322	996.24	251.24	61.189	636.62	468.4	117.18	551.75	454.4	48.327	549.1	455.21	134.27	640.46	467.85	45.194	481.75	454.88	72.196	473.26	311.28	-106.45	412.4	467.4	-125.9	310.33	431.75	-160.87	369.21	456.58	-72.826	358.36	449.21	-311.93	225.92	419.48	-278.44	209.59	329.74	-370.24	264.97	358.46	-380.57	240.13	323.37	-392.28	235.44	387.19	-302.49	71.913	440.46	-264.94	68.343	319.96	-212.16	37.093	375.15	243.12	668	93.65	347.76	635.85	99.939	285.66	589.97	116.67	295.43	712.36	76.029	369.31	534.44	113.26	376.59	548.04	253.51	349.52	392.01	90.289	422.11	313.4	121.53	362.93	315.3	94.439	410.01	389.19	114.38	378.42	102.81	126.76	400.2	115.42	226.19	307.94	71.266	172.77	319.1	47.709	207.76	318.53	44.393	145.03	527.46	46.243	114.98	551.9	57.825	235.97	615.08	71.824	184.96	94.87	1557.7	266.67	-1.2394	1250.5	288.44
272	1.1292	302.78	1238.4	247.01	204.66	1493.9	418.03	173.83	1504.7	92.682	224.45	1814.9	235.43	237.97	979.76	414.51	259.05	993.84	148.86	9.6259	1035	305.46	14.874	1030.9	202.03	146.69	929.59	487.24	166.9	948.13	61.714	160.32	1087.3	471.74	152.09	1071.8	67.515	-1.4525	996.97	250.92	70.452	636.09	468.39	127.31	551.75	454.72	58.481	548.39	455.38	143.49	640.66	467.88	56.158	481.24	455.25	83.238	472.58	311.58	-95.872	413.49	467.78	-116.65	311.77	431.94	-150.85	371.07	456.9	-62.938	359.04	449.48	-303.58	230.25	419.56	-270.54	212.95	329.92	-360.63	270.98	358.49	-371.71	246.46	323.41	-383.55	242.16	387.22	-298.65	75.696	440.45	-260.92	70.863	320.32	-209.69	37.029	375.72	248.34	668.62	93.245	352.81	636.01	99.872	290.45	590.41	116.43	300.89	712.75	75.842	373.83	534.45	113.33	380.81	548.07	253.61	352.92	392.24	90.351	424.8	313.01	121.71	365.65	315.42	94.523	413.35	388.9	114.52	379.01	102.91	126.93	400.83	115.25	226.38	308.32	71.565	172.79	319.3	47.904	207.77	318.79	44.664	145.04	527.84	45.61	115.13	552.26	56.567	236.22	615.56	70.209	185.32	100.71	1558.6	265.55	4.6703	1251.4	287.72
